{
    "asset" : {
        "generator" : "Khronos glTF Blender I/O v1.4.40",
        "version" : "2.0"
    },
    "scene" : 0,
    "scenes" : [
        {
            "name" : "Scene",
            "nodes" : [
                0
            ]
        }
    ],
    "nodes" : [
        {
            "mesh" : 0,
            "name" : "Cube",
            "translation" : [
                0,
                0.10000000149011612,
                0
            ]
        }
    ],
    "materials" : [
        {
            "doubleSided" : true,
            "name" : "body",
            "pbrMetallicRoughness" : {
                "baseColorFactor" : [
                    1,
                    0.09156393259763718,
                    0.42815545201301575,
                    1
                ],
                "metallicFactor" : 0,
                "roughnessFactor" : 0.009090900421142578
            }
        },
        {
            "doubleSided" : true,
            "name" : "Schnabel",
            "pbrMetallicRoughness" : {
                "baseColorFactor" : [
                    0.7847405672073364,
                    0.8000000715255737,
                    0,
                    1
                ],
                "metallicFactor" : 0,
                "roughnessFactor" : 0.3545454740524292
            }
        }
    ],
    "meshes" : [
        {
            "name" : "Cube",
            "primitives" : [
                {
                    "attributes" : {
                        "POSITION" : 0,
                        "NORMAL" : 1,
                        "TEXCOORD_0" : 2
                    },
                    "indices" : 3,
                    "material" : 0
                },
                {
                    "attributes" : {
                        "POSITION" : 4,
                        "NORMAL" : 5,
                        "TEXCOORD_0" : 6
                    },
                    "indices" : 7,
                    "material" : 1
                }
            ]
        }
    ],
    "accessors" : [
        {
            "bufferView" : 0,
            "componentType" : 5126,
            "count" : 592,
            "max" : [
                0.07181189954280853,
                0.09126638621091843,
                0.07865485548973083
            ],
            "min" : [
                -0.07181189954280853,
                -0.0988529622554779,
                -0.10375969111919403
            ],
            "type" : "VEC3"
        },
        {
            "bufferView" : 1,
            "componentType" : 5126,
            "count" : 592,
            "type" : "VEC3"
        },
        {
            "bufferView" : 2,
            "componentType" : 5126,
            "count" : 592,
            "type" : "VEC2"
        },
        {
            "bufferView" : 3,
            "componentType" : 5123,
            "count" : 2412,
            "type" : "SCALAR"
        },
        {
            "bufferView" : 4,
            "componentType" : 5126,
            "count" : 43,
            "max" : [
                0.02914431132376194,
                0.042367808520793915,
                0.10032166540622711
            ],
            "min" : [
                -0.02914431504905224,
                0.012105189263820648,
                0.06274972856044769
            ],
            "type" : "VEC3"
        },
        {
            "bufferView" : 5,
            "componentType" : 5126,
            "count" : 43,
            "type" : "VEC3"
        },
        {
            "bufferView" : 6,
            "componentType" : 5126,
            "count" : 43,
            "type" : "VEC2"
        },
        {
            "bufferView" : 7,
            "componentType" : 5123,
            "count" : 192,
            "type" : "SCALAR"
        }
    ],
    "bufferViews" : [
        {
            "buffer" : 0,
            "byteLength" : 7104,
            "byteOffset" : 0
        },
        {
            "buffer" : 0,
            "byteLength" : 7104,
            "byteOffset" : 7104
        },
        {
            "buffer" : 0,
            "byteLength" : 4736,
            "byteOffset" : 14208
        },
        {
            "buffer" : 0,
            "byteLength" : 4824,
            "byteOffset" : 18944
        },
        {
            "buffer" : 0,
            "byteLength" : 516,
            "byteOffset" : 23768
        },
        {
            "buffer" : 0,
            "byteLength" : 516,
            "byteOffset" : 24284
        },
        {
            "buffer" : 0,
            "byteLength" : 344,
            "byteOffset" : 24800
        },
        {
            "buffer" : 0,
            "byteLength" : 384,
            "byteOffset" : 25144
        }
    ],
    "buffers" : [
        {
            "byteLength" : 25528,
            "uri" : "nina.bin"
        }
    ]
}
